<?xml version="1.0" encoding="UTF-8" standalone="no"?>
<svg
   width="760.08429"
   height="760.08429"
   viewBox="0 0 760.08429 760.08429"
   version="1.1"
   xml:space="preserve"
   style="clip-rule:evenodd;fill-rule:evenodd;stroke-linecap:round"
   id="svg158"
   sodipodi:docname="logo_circle.svg"
   inkscape:version="1.3.2 (091e20e, 2023-11-25, custom)"
   inkscape:export-filename="logo_complet_60x60px.png"
   inkscape:export-xdpi="7.1999998"
   inkscape:export-ydpi="7.1999998"
   xmlns:inkscape="http://www.inkscape.org/namespaces/inkscape"
   xmlns:sodipodi="http://sodipodi.sourceforge.net/DTD/sodipodi-0.dtd"
   xmlns="http://www.w3.org/2000/svg"
   xmlns:svg="http://www.w3.org/2000/svg"><defs
   id="defs162" /><sodipodi:namedview
   id="namedview160"
   pagecolor="#ffffff"
   bordercolor="#666666"
   borderopacity="1.0"
   inkscape:showpageshadow="2"
   inkscape:pageopacity="0.0"
   inkscape:pagecheckerboard="true"
   inkscape:deskcolor="#d1d1d1"
   showgrid="false"
   inkscape:current-layer="svg158"
   showguides="true"
   labelstyle="default"><sodipodi:guide
     position="-113.96217,-195.61159"
     orientation="1,0"
     id="guide3272"
     inkscape:locked="false" /><sodipodi:guide
     position="371.24821,-4.1152248"
     orientation="1,0"
     id="guide3274"
     inkscape:locked="false" /><sodipodi:guide
     position="249.79525,38.521875"
     orientation="0,-1"
     id="guide333"
     inkscape:locked="false" /><inkscape:grid
     type="xygrid"
     id="grid1792"
     originx="-113.95786"
     originy="-19.957855"
     spacingy="1"
     spacingx="1"
     units="px"
     visible="false" /></sodipodi:namedview>
    <circle
   style="fill:#f9f9f9;fill-opacity:1;fill-rule:evenodd;stroke-width:5.15906;stroke-linecap:round;stroke-linejoin:round;paint-order:markers stroke fill"
   id="path1"
   cx="380.04214"
   cy="380.04214"
   r="380.04214" /><g
   id="g1"
   transform="translate(-19.957855,-31.957855)"><path
     d="M 181.71691,609.63919 H 630.05476"
     style="fill:none;stroke:#174365;stroke-width:5.41455px;stroke-linejoin:round;stroke-miterlimit:1.5;stroke-opacity:1"
     id="path61" /><path
     d="m 278.39972,305.73683 c 41.33354,-113.74256 128.58914,-31.38962 121.78677,6.26831 2.00874,-57.215 99.07336,-100.79013 123.70126,-0.11642"
     style="fill:none;stroke:#174365;stroke-width:5.41455px;stroke-linejoin:round;stroke-miterlimit:1.5;stroke-opacity:1"
     id="path29" /><path
     d="m 523.87666,312.56508 c -7.48612,-42.9727 77.58517,-102.98922 116.63832,-23.95339"
     style="fill:none;stroke:#174365;stroke-width:5.41455px;stroke-linejoin:round;stroke-miterlimit:1.5;stroke-opacity:1"
     id="path32" /><path
     d="m 162.88126,282.90146 c 29.08336,-39.07532 92.51862,-60.62081 116.07839,25.30056"
     style="fill:none;stroke:#174365;stroke-width:5.41455px;stroke-linejoin:round;stroke-miterlimit:1.5;stroke-opacity:1"
     id="path35" /><path
     d="m 228.14602,252.04591 c 6.73031,117.72123 65.17606,144.58517 98.95695,161.31299 2.93827,1.76112 -13.93,125.67675 10.74779,138.37415 24.42093,12.56804 112.43789,6.12602 125.42357,2.9087 24.09569,-5.96524 10.82356,-144.2821 10.82356,-144.2821 7.75039,-0.75397 111.51021,-43.67308 105.54312,-158.31374"
     style="fill:none;stroke:#174365;stroke-width:5.41455px;stroke-linejoin:round;stroke-miterlimit:1.5;stroke-opacity:1"
     id="path38" /><path
     d="M 278.28699,301.93001 C 270.5865,221.6043 329.38336,71.682183 406.45665,78.283131 482.47105,84.79353 526.31598,220.36246 522.87137,300.81199"
     style="fill:none;stroke:#174365;stroke-width:5.41455px;stroke-linejoin:round;stroke-miterlimit:1.5;stroke-opacity:1"
     id="path41" /><path
     d="M 160.73577,282.38773 C 202.33173,123.67297 337.71216,67.213789 406.45665,78.283131 544.45566,81.611325 615.75773,183.9094 639.88852,287.95566"
     style="fill:none;stroke:#174365;stroke-width:5.41455px;stroke-linejoin:round;stroke-miterlimit:1.5;stroke-opacity:1"
     id="path44" /><path
     d="M 296.19752,462.50567 498.12705,446.91619"
     style="fill:none;stroke:#174365;stroke-width:5.41455px;stroke-linejoin:round;stroke-miterlimit:1.5;stroke-opacity:1"
     id="path48" /><path
     d="M 299.6717,498.55771 498.50773,482.71876"
     style="fill:none;stroke:#174365;stroke-width:5.41455px;stroke-linejoin:round;stroke-miterlimit:1.5;stroke-opacity:1"
     id="path51" /><path
     d="m 299.6717,534.60976 198.83603,-15.8371"
     style="fill:none;stroke:#174365;stroke-width:5.41455px;stroke-linejoin:round;stroke-miterlimit:1.5;stroke-opacity:1"
     id="path54" /><path
     d="m 362.17744,558.70544 v 50.37381 l 78.35578,0.55994 -1.12172,-50.93375"
     style="fill:none;stroke:#174365;stroke-width:5.41455px;stroke-linejoin:round;stroke-miterlimit:1.5;stroke-opacity:1"
     id="path58" /><path
     d="m 404.25572,65.879555 v 9.853378"
     style="fill:none;fill-rule:nonzero;stroke:#174365;stroke-width:5.41455px;stroke-opacity:1"
     id="path65" /><path
     d="M 415.07693,453.32787 V 371.0133 h 17.79383"
     style="fill:none;fill-rule:nonzero;stroke:#174365;stroke-width:5.41455px;stroke-linejoin:round;stroke-opacity:1"
     id="path68"
     sodipodi:nodetypes="ccc" /><path
     d="M 387.92797,453.32787 V 371.0133 h -17.79383"
     style="clip-rule:evenodd;fill:none;fill-rule:nonzero;stroke:#174365;stroke-width:5.41455px;stroke-linecap:round;stroke-linejoin:round;stroke-opacity:1"
     id="path68-5"
     sodipodi:nodetypes="ccc" /><g
     id="path72"
     transform="matrix(0.94746322,0,0,1,158.47037,40.709815)"
     style="stroke:#474f54;stroke-width:3.69846"><path
       style="color:#000000;clip-rule:nonzero;fill:#474f54;fill-rule:nonzero;stroke:none;stroke-width:3.69847;stroke-linecap:butt;-inkscape-stroke:none"
       d="m 50.791204,638.80918 c 0.827753,0 1.537256,0.2365 2.128509,0.94601 l 6.030775,6.50377 c -2.719761,3.90227 -6.267276,6.85853 -10.406044,8.86879 -4.138767,2.01026 -9.105289,3.07451 -14.899563,3.07451 -5.203022,0 -9.814792,-0.946 -13.953559,-2.95626 -4.257018,-1.89201 -7.686283,-4.61177 -10.642545,-8.15928 C 6.0925145,643.65745 3.845755,639.51868 2.3084985,634.67041 0.771242,629.94039 0.061739,624.61912 0.061739,618.9431 c 0,-5.67603 0.8277535,-10.9973 2.4832605,-15.72732 1.655507,-4.84827 4.020517,-8.98704 7.09503,-12.4163 2.9562625,-3.42927 6.6220275,-6.14903 10.8790455,-8.04104 4.257019,-2.01025 8.868788,-2.95626 13.95356,-2.95626 5.203022,0 9.696541,0.94601 13.717057,2.71976 3.902267,1.89201 7.213281,4.25702 9.933043,7.33153 l -5.084772,7.09503 c -0.354751,0.35476 -0.827753,0.82776 -1.182505,1.18251 -0.473002,0.2365 -1.064254,0.473 -1.892008,0.473 -0.827753,0 -1.655507,-0.35475 -2.36501,-0.946 -0.709503,-0.59126 -1.655507,-1.30076 -2.719761,-2.01026 -1.182505,-0.7095 -2.483261,-1.41901 -4.138768,-2.01026 -1.655507,-0.59125 -3.784016,-0.946 -6.385527,-0.946 -2.838012,0 -5.321273,0.59125 -7.686283,1.77375 -2.246759,1.18251 -4.257018,2.83802 -5.912525,5.08478 -1.655507,2.36501 -2.956262,5.08477 -3.902266,8.27753 -0.827754,3.31101 -1.300756,6.97678 -1.300756,11.11555 0,4.25702 0.473002,7.92278 1.537257,11.23379 0.946004,3.31102 2.246759,6.03078 4.020517,8.27754 1.655507,2.24676 3.665766,4.02052 6.030775,5.20302 2.365011,1.06426 4.848271,1.65551 7.449782,1.65551 1.537257,0 2.956263,0 4.257018,-0.2365 1.300756,-0.11825 2.483261,-0.473 3.547515,-0.94601 1.064255,-0.35475 2.128509,-0.946 3.074513,-1.6555 0.946004,-0.70951 2.010259,-1.53726 2.956263,-2.60151 0.354751,-0.35476 0.709503,-0.59126 1.182505,-0.82776 0.354751,-0.11825 0.827753,-0.2365 1.182505,-0.2365 z"
       id="path4034" /><path
       id="path4036"
       style="color:#000000;clip-rule:nonzero;fill:#474f54;fill-rule:nonzero;stroke:none;stroke-linecap:butt;-inkscape-stroke:none"
       d="m 34.471935,577.9527 c -5.30598,0 -10.207691,0.99696 -14.722702,3.125 -4.485325,1.99668 -8.368469,4.87876 -11.4965712,8.50391 -3.2461471,3.62524 -5.7331369,7.99008 -7.45617666,13.03515 l -0.002061,0.002 c -1.73178776,4.95341 -2.58090494,10.47358 -2.58090494,16.32422 0,5.83012 0.7260909,11.34017 2.33765672,16.29883 1.60058408,5.04203 3.96144918,9.40946 7.08718138,13.03906 3.1011667,3.71853 6.7728737,6.63348 11.2780597,8.64063 4.411118,2.13595 9.314651,3.12891 14.728886,3.12891 6.020692,0 11.275,-1.10757 15.706002,-3.25977 4.406101,-2.14012 8.21465,-5.31293 11.115207,-9.47461 l 0.853431,-1.22266 -7.043892,-7.5957 0.0639,0.0742 c -0.927644,-1.11319 -2.369792,-1.61328 -3.549775,-1.61328 -0.765688,0 -1.294936,0.17479 -1.766641,0.33203 l -0.125747,0.041 -0.117502,0.0605 c -0.583266,0.29163 -1.161462,0.67377 -1.661509,1.17383 l -0.03917,0.0371 -0.03504,0.041 c -0.804786,0.90536 -1.757692,1.65684 -2.683976,2.35156 -0.807925,0.60595 -1.719643,1.10408 -2.549984,1.38086 l -0.08452,0.0273 -0.08246,0.0371 c -0.913259,0.4059 -1.895039,0.69577 -2.96433,0.79297 l -0.08246,0.008 -0.07834,0.0156 c -1.067868,0.19416 -2.389764,0.20508 -3.927015,0.20507 -2.307461,0 -4.507452,-0.51898 -6.652221,-1.47851 -2.064866,-1.03915 -3.839553,-2.59187 -5.339093,-4.62695 l -0.02061,-0.0254 -0.01649,-0.0234 c -1.596464,-2.02219 -2.799659,-4.50295 -3.696136,-7.64063 l -0.0082,-0.0273 -0.0082,-0.0293 c -0.991417,-3.08439 -1.447121,-6.54794 -1.447121,-10.66797 0,-3.9776 0.450051,-7.46944 1.232733,-10.61718 0.893229,-3.00452 2.101381,-5.51759 3.626048,-7.69922 1.481403,-2.00358 3.247053,-3.45731 5.252512,-4.51563 2.116186,-1.0547 4.266468,-1.57031 6.839811,-1.57031 2.433391,0 4.360405,0.33669 5.763746,0.83789 1.493855,0.53351 2.657557,1.167 3.786839,1.84375 0.987387,0.6612 1.874154,1.32663 2.508755,1.85547 0.973442,0.8112 2.193674,1.37501 3.549775,1.375 1.179984,0 2.135754,-0.37634 2.71902,-0.66797 l 0.267986,-0.13477 0.212326,-0.21093 c 0.354753,-0.35475 0.828491,-0.82882 1.183259,-1.1836 l 0.107194,-0.10742 6.031731,-8.41601 -0.977115,-1.10352 c -2.901505,-3.28 -6.434186,-5.79483 -10.511291,-7.7716 l -0.03092,-0.0137 -0.03092,-0.0137 c -4.263891,-1.88113 -9.035806,-2.87695 -14.462962,-2.87695 z m 0,3.69922 c 4.965977,0 9.169965,0.8927 12.939569,2.55078 3.24163,1.5753 5.921769,3.54516 8.253948,5.90234 l -4.042456,5.64258 c -0.24508,0.24508 -0.511364,0.51372 -0.773034,0.77539 -0.272579,0.12672 -0.491035,0.23047 -0.886413,0.23047 -0.299402,0 -0.735638,-0.14432 -1.181197,-0.51562 -0.771613,-0.64302 -1.760898,-1.38434 -2.87775,-2.12891 l -0.03711,-0.0254 -0.03711,-0.0215 c -1.229134,-0.73746 -2.661313,-1.52034 -4.469171,-2.16601 -1.907663,-0.6813 -4.237172,-1.05469 -7.006785,-1.05469 -3.09484,0 -5.904038,0.66496 -8.511627,1.96875 l -0.01855,0.01 -0.01855,0.008 c -2.473932,1.30208 -4.716597,3.15195 -6.538842,5.625 l -0.01237,0.0176 -0.01443,0.0195 c -1.776496,2.53786 -3.164049,5.45131 -4.159957,8.8125 l -0.01237,0.0371 -0.0082,0.0391 c -0.865441,3.46176 -1.356418,7.28481 -1.356418,11.56445 0,4.38471 0.48833,8.24389 1.620281,11.77539 0.991784,3.45811 2.383749,6.39725 4.318687,8.85547 1.800525,2.43615 4.030546,4.41518 6.672834,5.73633 l 0.03298,0.0176 0.03505,0.0156 c 2.573024,1.15787 5.326907,1.81836 8.208597,1.81836 1.502554,0 2.985301,9e-5 4.4836,-0.25976 1.473124,-0.14189 2.801965,-0.54305 3.980613,-1.0586 1.267277,-0.43395 2.463924,-1.09284 3.525038,-1.88867 0.965718,-0.7243 2.140977,-1.63039 3.228193,-2.85351 l -0.07421,0.0801 c 0.180391,-0.18038 0.342105,-0.27804 0.603998,-0.41601 0.216766,-0.0518 0.494036,-0.10742 0.451452,-0.10742 0.475518,0 0.454272,-0.0246 0.709131,0.28125 l 0.03092,0.0371 4.920623,5.30664 c -2.400196,3.0511 -5.279323,5.51354 -8.713646,7.18164 -3.846505,1.86831 -8.524083,2.88867 -14.091906,2.88867 -4.978858,0 -9.287487,-0.8975 -13.145711,-2.77148 l -0.02886,-0.0137 -0.02886,-0.0117 c -3.992786,-1.77456 -7.169594,-4.29001 -9.973178,-7.65429 l -0.01031,-0.0117 -0.01031,-0.0117 C 7.6697288,642.65558 5.5420235,638.75335 4.0700291,634.1109 l -0.00206,-0.006 -0.00206,-0.006 c -1.4629379,-4.50134 -2.1562511,-9.63434 -2.1562512,-15.15625 0,-5.49622 0.8048109,-10.61394 2.3809466,-15.11718 l 0.00206,-0.006 0.00206,-0.008 c 1.5854622,-4.64313 3.826829,-8.54973 6.7223095,-11.77929 l 0.01237,-0.0117 0.01237,-0.0137 c 2.778349,-3.2229 6.210718,-5.7737 10.226732,-7.5586 l 0.02061,-0.01 0.01855,-0.01 c 3.993261,-1.8857 8.308871,-2.77734 13.164264,-2.77734 z" /></g><g
     id="path76"
     transform="matrix(0.94746322,0,0,1,158.47037,40.709815)"
     style="stroke:#474f54;stroke-width:3.69846"><path
       style="color:#000000;clip-rule:nonzero;fill:#474f54;fill-rule:nonzero;stroke:none;stroke-width:3.69847;stroke-linecap:butt;-inkscape-stroke:none"
       d="m 87.117757,672.86533 c -0.473002,1.06425 -0.946004,1.77375 -1.655507,2.36501 -0.709503,0.473 -1.655507,0.7095 -3.074513,0.7095 H 71.39044 l 10.287794,-23.05885 -21.40334,-52.85797 h 12.889304 c 1.182505,0 2.128509,0.2365 2.719762,0.82775 0.591252,0.59125 1.064254,1.18251 1.419005,1.89201 l 9.578291,28.26187 c 0.354751,1.06425 0.709503,2.12851 1.064255,3.19276 0.236501,0.94601 0.591252,2.01026 0.946004,3.07451 0.236501,-1.06425 0.591252,-2.1285 0.946004,-3.19276 0.354751,-1.06425 0.709503,-2.12851 1.182505,-3.19276 l 8.868787,-28.14362 c 0.354749,-0.82775 0.827749,-1.41901 1.537259,-2.01026 0.7095,-0.473 1.53725,-0.7095 2.48326,-0.7095 h 11.7068 z"
       id="path4040" /><path
       style="color:#000000;clip-rule:nonzero;fill:#474f54;fill-rule:nonzero;stroke:none;stroke-linecap:butt;-inkscape-stroke:none"
       d="m 57.53125,598.17383 22.138672,54.67187 -11.128906,24.94336 h 13.847656 c 1.624474,0 2.99558,-0.28351 4.099609,-1.01953 l 0.08203,-0.0547 0.07617,-0.0644 c 0.957907,-0.79826 1.625213,-1.82958 2.160157,-3.0332 l 0.01758,-0.0391 0.01563,-0.0391 29.486322,-75.36523 h -14.41601 c -1.25422,0 -2.48465,0.33612 -3.50977,1.01953 l -0.082,0.0547 -0.0762,0.0644 c -0.86478,0.72064 -1.589138,1.61945 -2.052733,2.70117 l -0.03711,0.0859 -8.896485,28.23047 0.07422,-0.19531 c -0.173628,0.39066 -0.270357,0.74265 -0.416016,1.12304 -0.09308,-0.27924 -0.186215,-0.55864 -0.279296,-0.83789 v -0.004 l -9.621094,-28.38672 -0.05664,-0.11328 c -0.465015,-0.93003 -1.087192,-1.69462 -1.765625,-2.37305 -1.114295,-1.11429 -2.598276,-1.36914 -4.027344,-1.36914 z m 5.488281,3.69922 h 10.144531 c 0.935941,0 1.3439,0.21694 1.41211,0.28515 0.488633,0.48863 0.797249,0.8992 1.039062,1.36914 l 9.513672,28.07032 c 0.353903,1.0617 0.708594,2.12188 1.0625,3.18359 l -0.03906,-0.13477 c 0.262884,1.05155 0.629623,2.14669 0.984375,3.21094 l 2.111328,6.33203 1.449219,-6.51562 c 0.208183,-0.93683 0.539778,-1.94551 0.894531,-3.00977 0.354751,-1.06425 0.690644,-2.06762 1.117187,-3.02734 l 0.04297,-0.0957 8.853514,-28.0918 c 0.2233,-0.51385 0.46725,-0.80201 0.92969,-1.20117 0.3752,-0.2337 0.77396,-0.375 1.375,-0.375 h 8.99804 l -27.484369,70.24804 c -0.384212,0.86294 -0.663746,1.22591 -1.076172,1.58789 -0.319186,0.19893 -0.797609,0.38086 -1.958984,0.38086 H 74.242187 L 83.6875,652.91602 Z"
       id="path4042" /></g><g
     id="path80"
     transform="matrix(0.94746322,0,0,1,158.47037,40.709815)"
     style="stroke:#474f54;stroke-width:3.69846"><path
       style="color:#000000;clip-rule:nonzero;fill:#474f54;fill-rule:nonzero;stroke:none;stroke-width:3.69847;stroke-linecap:butt;-inkscape-stroke:none"
       d="m 123.39701,657.37451 v -79.01185 h 14.66306 v 28.40064 c 2.12851,-2.24676 4.61177,-4.13877 7.44978,-5.55778 2.71977,-1.419 5.79428,-2.12851 9.22354,-2.12851 3.19277,0 6.14903,0.70951 8.75054,2.01026 2.71976,1.30076 4.84827,3.19277 6.74028,5.67603 1.89201,2.36501 3.31101,5.32127 4.25702,8.75053 1.06425,3.54752 1.53725,7.44978 1.53725,11.7068 0,4.73002 -0.59125,8.86879 -1.77375,12.77106 -1.18251,3.78401 -2.71977,6.97678 -4.84828,9.69654 -2.1285,2.71976 -4.73002,4.84827 -7.68628,6.38552 -2.83801,1.41901 -6.14902,2.12851 -9.81479,2.12851 -1.77376,0 -3.31101,-0.11825 -4.73002,-0.473 -1.41901,-0.35475 -2.71976,-0.82775 -3.90227,-1.53726 -1.1825,-0.59125 -2.24676,-1.30075 -3.31101,-2.24675 -0.946,-0.94601 -1.89201,-1.89201 -2.83801,-3.07452 l -0.59125,3.78402 c -0.23651,0.946 -0.59126,1.65551 -1.18251,2.12851 -0.59125,0.35475 -1.30075,0.59125 -2.24676,0.59125 z m 26.25161,-46.8272 c -2.48326,0 -4.61177,0.59125 -6.38553,1.65551 -1.892,1.06425 -3.54751,2.71976 -5.20302,4.73002 v 25.30561 c 1.41901,1.77375 2.95626,3.07451 4.73002,3.78401 1.65551,0.7095 3.42927,1.18251 5.43953,1.18251 1.892,0 3.66576,-0.35475 5.20302,-1.06426 1.53725,-0.7095 2.95626,-1.89201 4.02051,-3.42926 1.06426,-1.53726 1.89201,-3.54752 2.48326,-6.03078 0.59126,-2.48326 0.94601,-5.43952 0.94601,-8.86879 0,-3.07451 -0.2365,-5.67602 -0.7095,-7.92278 -0.59126,-2.12851 -1.30076,-3.90227 -2.24676,-5.32127 -0.94601,-1.41901 -2.12851,-2.36501 -3.54752,-3.07451 -1.30075,-0.59126 -2.95626,-0.94601 -4.73002,-0.94601 z"
       id="path4046"
       sodipodi:nodetypes="cccccscccscscsscccccscsccccssssscscs" /><path
       style="color:#000000;clip-rule:nonzero;fill:#474f54;fill-rule:nonzero;stroke:none;stroke-linecap:butt;-inkscape-stroke:none"
       d="m 121.54688,576.51367 v 82.71094 h 1.8496 9.69727 c 1.25421,0 2.35728,-0.35148 3.19727,-0.85547 l 0.10742,-0.0644 0.0977,-0.0781 c 1.0139,-0.81111 1.53104,-1.966 1.82032,-3.12304 l 0.0215,-0.0801 0.0137,-0.0899 c 0.0944,0.0946 0.19971,0.2251 0.29297,0.31836 l 0.0391,0.0391 0.0391,0.0371 c 1.15643,1.02795 2.35604,1.81989 3.64257,2.47071 1.37033,0.81368 2.83376,1.34516 4.35157,1.72461 1.63006,0.40751 3.32179,0.52734 5.17773,0.52734 3.90438,0 7.51053,-0.75623 10.64258,-2.32226 l 0.0137,-0.008 0.0117,-0.006 c 3.18218,-1.65472 6.0004,-3.95981 8.29102,-6.88672 2.29507,-2.93259 3.92597,-6.3483 5.15625,-10.28515 l 0.002,-0.008 0.002,-0.008 c 1.23813,-4.08584 1.85352,-8.42252 1.85352,-13.30664 0,-4.38741 -0.48677,-8.4648 -1.61133,-12.2207 -0.99762,-3.60666 -2.50733,-6.78361 -4.57617,-9.375 -2.01671,-2.64215 -4.38951,-4.76096 -7.38672,-6.19727 -2.85814,-1.42582 -6.10044,-2.19921 -9.56055,-2.19921 -3.68052,0 -7.0683,0.7708 -10.06836,2.33398 -1.71819,0.86089 -3.28161,1.92059 -4.7539,3.08008 v -26.12891 z m 3.69921,3.69727 h 10.96485 v 31.19336 l 3.1914,-3.36914 c 1.99112,-2.10174 4.29775,-3.85785 6.9336,-5.17579 l 0.0156,-0.008 0.0137,-0.006 c 2.43719,-1.27156 5.193,-1.91992 8.36719,-1.91992 2.91881,0 5.58295,0.64597 7.92383,1.81641 l 0.0156,0.006 0.0137,0.008 c 2.42888,1.16164 4.30712,2.81729 6.06836,5.12891 l 0.0117,0.0176 0.0137,0.0156 c 1.70417,2.13021 3.02752,4.85298 3.91992,8.08789 l 0.004,0.0195 0.008,0.0195 c 1.00033,3.33447 1.45898,7.05575 1.45898,11.17578 0,4.57518 -0.5688,8.51426 -1.69531,12.23242 -1.8e-4,6e-4 1.8e-4,10e-4 0,0.002 -1.13394,3.62344 -2.57628,6.59074 -4.53516,9.09375 -1.96243,2.50756 -4.34292,4.45594 -7.0664,5.875 -2.54206,1.26901 -5.55545,1.92969 -8.97852,1.92969 -1.69157,0 -3.0733,-0.11599 -4.28125,-0.41797 -1.30175,-0.32544 -2.41803,-0.74183 -3.39844,-1.33008 l -0.0605,-0.0352 -0.0645,-0.0332 c -1.03885,-0.51943 -1.94013,-1.12299 -2.8789,-1.95313 -0.92677,-0.92694 -1.79722,-1.80022 -2.65235,-2.86914 l -2.62304,-3.27734 -1.21875,7.79297 c -0.16345,0.63532 -0.32924,0.86278 -0.48243,1.00586 -0.30031,0.16305 -0.57881,0.28906 -1.14062,0.28906 h -7.84766 z m 24.40235,28.48633 c -2.76656,0 -5.24085,0.67433 -7.31055,1.91015 -2.19452,1.23982 -3.98738,3.06462 -5.70508,5.15039 l -0.42187,0.51172 v 26.61719 l 0.40429,0.50781 c 1.54637,1.93294 3.32507,3.47249 5.47266,4.33594 1.8156,0.77529 3.85223,1.32422 6.14258,1.32422 2.12315,0 4.16083,-0.39634 5.97656,-1.23438 1.85395,-0.85567 3.51612,-2.25179 4.76563,-4.05664 1.23829,-1.78864 2.13443,-4.01148 2.76367,-6.6543 0.62925,-2.64282 0.99609,-5.74007 0.99609,-9.29687 0,-3.16934 -0.24332,-5.89793 -0.75,-8.30469 l -0.0117,-0.0566 -0.0156,-0.0566 c -0.62246,-2.24082 -1.38642,-4.19584 -2.49024,-5.85156 -1.13012,-1.69517 -2.62022,-2.88336 -4.25976,-3.70313 l -0.0293,-0.0156 -0.0312,-0.0137 c -1.58518,-0.72055 -3.47577,-1.11328 -5.49609,-1.11328 z m 0,3.69921 c 1.51967,0 2.93004,0.31907 3.94531,0.77735 1.17367,0.59398 2.04138,1.29254 2.79297,2.41992 0.77954,1.16932 1.42643,2.75339 1.98242,4.73828 0.43224,2.07586 0.66406,4.5255 0.66406,7.48047 0,3.30173 -0.34321,6.11576 -0.89648,8.43945 -0.55326,2.3237 -1.3129,4.12037 -2.20313,5.40625 -0.87899,1.26966 -2.05484,2.23941 -3.27539,2.80274 -1.25878,0.58098 -2.76689,0.89453 -4.42773,0.89453 -1.72018,0 -3.22344,-0.39487 -4.71289,-1.0332 l -0.0195,-0.008 -0.0215,-0.01 c -1.24707,-0.49883 -2.41115,-1.46395 -3.5664,-2.80274 v -23.84961 c 1.43379,-1.67945 2.82245,-3.0294 4.25976,-3.83789 l 0.0215,-0.0117 0.0234,-0.0137 c 1.4732,-0.88392 3.24387,-1.39258 5.4336,-1.39258 z"
       id="path4048"
       sodipodi:nodetypes="cccsscscccscccssccsscccscccscccccccccccscccccccccsscscssccccccccsccsccccccsssssccsscccssccscssssscccccccccc" /></g><g
     id="path84"
     transform="matrix(0.94746322,0,0,1,158.47037,40.709815)"
     style="stroke:#474f54;stroke-width:3.69846"><path
       style="color:#000000;clip-rule:nonzero;fill:#474f54;fill-rule:nonzero;stroke:none;stroke-width:3.69847;stroke-linecap:butt;-inkscape-stroke:none"
       d="m 210.73683,599.07701 c 3.66577,0 6.97678,0.59126 10.05129,1.77376 2.95627,1.18251 5.67603,2.83801 7.80454,5.08477 2.24676,2.24676 3.90226,4.96652 5.20302,8.15929 1.1825,3.31101 1.77376,6.97678 1.77376,11.11554 0,1.06426 0,2.01026 -0.11825,2.71977 -0.11825,0.7095 -0.35476,1.30075 -0.59126,1.77375 -0.2365,0.35475 -0.59125,0.70951 -1.06425,0.82776 -0.35475,0.2365 -0.946,0.2365 -1.65551,0.2365 h -34.29264 c 0.2365,2.83801 0.7095,5.20302 1.53725,7.21328 0.82776,2.12851 1.77376,3.78401 3.07452,5.08477 1.30075,1.30075 2.71976,2.24676 4.49352,2.95626 1.77375,0.59125 3.66576,0.94601 5.79427,0.94601 2.12851,0 3.90227,-0.35476 5.43952,-0.82776 1.65551,-0.473 2.95627,-1.06425 4.13877,-1.6555 1.18251,-0.59126 2.24676,-1.18251 3.19276,-1.65551 0.94601,-0.59125 1.77376,-0.82776 2.71977,-0.82776 1.06425,0 1.892,0.47301 2.60151,1.30076 l 4.25701,5.43952 c -1.6555,1.89201 -3.31101,3.42927 -5.32127,4.61177 -1.89201,1.18251 -3.90226,2.12851 -5.91252,2.83801 -2.12851,0.82776 -4.13877,1.30076 -6.26728,1.53726 -2.12851,0.35475 -4.13877,0.473 -6.14903,0.473 -3.90226,0 -7.68628,-0.59125 -11.11554,-1.892 -3.42927,-1.30076 -6.38553,-3.31102 -8.86879,-5.91253 -2.60151,-2.60151 -4.61177,-5.79427 -6.03078,-9.57829 -1.419,-3.90227 -2.1285,-8.27753 -2.1285,-13.36231 0,-3.90226 0.59125,-7.56803 1.892,-10.99729 1.30076,-3.42927 3.07452,-6.38553 5.43953,-8.98704 2.36501,-2.60151 5.20302,-4.61177 8.63228,-6.14903 3.42927,-1.419 7.21328,-2.24676 11.4703,-2.24676 z m 0.35475,10.5243 c -3.78401,0 -6.74028,1.06425 -8.86878,3.19276 -2.01026,2.24676 -3.42927,5.32127 -4.02052,9.22354 h 24.24135 c 0,-1.65551 -0.2365,-3.19276 -0.7095,-4.73002 -0.473,-1.53726 -1.06426,-2.83801 -2.01026,-4.02052 -0.946,-1.06425 -2.12851,-2.01026 -3.54752,-2.71976 -1.419,-0.59125 -3.19276,-0.946 -5.08477,-0.946 z"
       id="path4052" /><path
       style="color:#000000;clip-rule:nonzero;fill:#474f54;fill-rule:nonzero;stroke:none;stroke-linecap:butt;-inkscape-stroke:none"
       d="m 210.73633,597.22852 c -4.49673,0 -8.53915,0.8811 -12.17774,2.38671 l -0.0234,0.01 -0.0254,0.0117 c -3.63086,1.62763 -6.70277,3.79629 -9.24415,6.5918 -2.52448,2.77693 -4.4273,5.95519 -5.80078,9.57617 -1.38983,3.66411 -2.01171,7.56329 -2.01172,11.65234 0,5.2568 0.73719,9.86072 2.24024,13.99414 l 0.004,0.01 0.002,0.008 c 1.4974,3.99305 3.64839,7.42038 6.43945,10.2168 2.65838,2.78129 5.85242,4.95587 9.53711,6.35351 3.67729,1.39483 7.68244,2.01172 11.77149,2.01172 2.06194,0 4.16271,-0.12607 6.38671,-0.49219 2.24792,-0.25256 4.4191,-0.76234 6.66993,-1.63476 2.11528,-0.74856 4.22799,-1.74236 6.22851,-2.99024 2.22193,-1.31094 4.03034,-3.00258 5.75586,-4.97461 l 1.00781,-1.15039 -5.22656,-6.67773 -0.0254,-0.0312 c -0.94547,-1.10304 -2.39368,-1.94727 -4.00586,-1.94727 -1.25422,0 -2.53199,0.37865 -3.70117,1.10938 l 0.1543,-0.0859 c -1.00114,0.50057 -2.05496,1.08704 -3.19336,1.65625 -1.13839,0.5692 -2.31018,1.09979 -3.82032,1.53125 l -0.0176,0.004 -0.0176,0.006 c -1.4035,0.43184 -2.9715,0.74609 -4.89453,0.74609 -1.90713,0 -3.57017,-0.31517 -5.16797,-0.84375 -1.53071,-0.62086 -2.68614,-1.39121 -3.8125,-2.51758 -1.06302,-1.06301 -1.8875,-2.46045 -2.66016,-4.44726 l -0.006,-0.0156 -0.006,-0.0176 c -0.53021,-1.28767 -0.87058,-2.88662 -1.12695,-4.66015 h 32.17187 c 0.64542,0 1.42013,0.0965 2.41016,-0.44532 0.89099,-0.32944 1.4983,-0.91736 1.84766,-1.4414 l 0.0644,-0.0957 0.0508,-0.10352 c 0.29163,-0.58325 0.60512,-1.3573 0.76172,-2.29688 0.16207,-0.97243 0.14258,-1.95917 0.14258,-3.02343 0,-4.31488 -0.61862,-8.20401 -1.88086,-11.73828 l -0.0137,-0.0371 -0.0156,-0.0391 c -1.36621,-3.35341 -3.14869,-6.2999 -5.59375,-8.75 -2.35432,-2.47784 -5.30231,-4.25686 -8.43945,-5.51171 l -0.0117,-0.006 -0.0117,-0.004 c -3.29692,-1.26804 -6.85023,-1.89648 -10.71484,-1.89648 z m 0,3.69726 c 3.46,0 6.52383,0.55193 9.37109,1.64453 2.76449,1.10654 5.24438,2.63307 7.14258,4.63672 l 0.0176,0.0176 0.0176,0.0176 c 2.0307,2.0307 3.54998,4.50612 4.77929,7.51172 1.09453,3.07874 1.65625,6.50938 1.65625,10.45703 0,1.06426 -0.0193,1.96943 -0.0937,2.41601 -0.0726,0.43588 -0.22189,0.79916 -0.38281,1.13672 l -0.20703,0.0508 -0.26758,0.17774 c 0.43431,-0.28954 0.0806,-0.0742 -0.62891,-0.0742 h -36.30273 l 0.16602,2.0039 c 0.24598,2.9518 0.74315,5.50157 1.66796,7.75196 0.88113,2.26008 1.94719,4.16594 3.48047,5.69922 1.45925,1.45924 3.12901,2.57348 5.11328,3.36718 l 0.0508,0.0195 0.0508,0.0176 c 1.93748,0.64583 4.04687,1.04102 6.38086,1.04102 2.32319,0 4.29093,-0.39362 5.95703,-0.9043 1.79532,-0.514 3.22334,-1.16343 4.44726,-1.77539 1.22662,-0.61331 2.3025,-1.20886 3.19336,-1.6543 l 0.0781,-0.0391 0.0742,-0.0469 c 0.72284,-0.45177 1.10244,-0.54688 1.74023,-0.54688 0.51366,0 0.723,0.10537 1.19141,0.65039 l 3.21289,4.10547 c -1.20988,1.25312 -2.41905,2.33727 -3.80469,3.15235 l -0.0215,0.0137 -0.0215,0.0117 c -1.76867,1.10542 -3.65824,1.99553 -5.54687,2.66211 l -0.0293,0.01 -0.0254,0.0117 c -1.98373,0.77145 -3.81618,1.20115 -5.80274,1.42187 l -0.0488,0.006 -0.0508,0.008 c -2.008,0.33466 -3.90601,0.44922 -5.84375,0.44922 -3.71547,0 -7.27972,-0.56482 -10.46094,-1.77149 -3.16806,-1.20168 -5.88185,-3.04549 -8.1875,-5.46094 l -0.0137,-0.0156 -0.0156,-0.0156 c -2.39915,-2.39915 -4.26263,-5.3442 -5.59961,-8.90234 -4.1e-4,-10e-4 4.2e-4,-0.003 0,-0.004 -1.33412,-3.67026 -2.01758,-7.81533 -2.01758,-12.72656 0,-3.71546 0.55982,-7.14739 1.77149,-10.3418 1.22804,-3.23755 2.87259,-5.97235 5.07812,-8.39843 2.18278,-2.40105 4.78239,-4.24624 7.99805,-5.69141 3.21297,-1.32584 6.72977,-2.09961 10.73633,-2.09961 z m 0.35547,6.82617 c -4.13074,0 -7.65984,1.21843 -10.17578,3.73438 l -0.0371,0.0371 -0.0352,0.0371 c -2.2809,2.54923 -3.83536,5.98637 -4.4707,10.17968 l -0.32227,2.12696 h 28.24219 v -1.84961 c 0,-1.83163 -0.26706,-3.57058 -0.79102,-5.27344 -0.51415,-1.67102 -1.20954,-3.22725 -2.33398,-4.63281 l -0.0293,-0.0371 -0.0332,-0.0352 c -1.09286,-1.22947 -2.46202,-2.32671 -4.10156,-3.14648 l -0.0566,-0.0273 -0.0606,-0.0254 c -1.68162,-0.70067 -3.67176,-1.08789 -5.79492,-1.08789 z m 0,3.69922 c 1.63782,0 3.16127,0.32028 4.3125,0.79102 1.15321,0.58705 2.11758,1.35496 2.89648,2.22265 0.75092,0.94955 1.23963,1.98142 1.66602,3.36719 0.23554,0.76551 0.24699,1.56176 0.34961,2.33594 h -19.6875 c 0.66338,-2.47438 1.60797,-4.58543 2.9414,-6.08985 1.73822,-1.72026 4.10528,-2.62695 7.52149,-2.62695 z m 22.22851,17.22656 c -0.0787,0.11805 -0.13286,0.1006 0.0273,0.0606 l -0.0723,0.0176 z"
       id="path4054" /></g><g
     id="path88"
     transform="matrix(0.94746322,0,0,1,158.47037,40.709815)"
     style="stroke:#474f54;stroke-width:3.69846"><path
       style="color:#000000;clip-rule:nonzero;fill:#474f54;fill-rule:nonzero;stroke:none;stroke-width:3.69847;stroke-linecap:butt;-inkscape-stroke:none"
       d="m 245.54978,657.37451 v -57.35149 h 8.51403 c 1.53726,0 2.60151,0.2365 3.19277,0.82775 0.59125,0.59125 0.946,1.53726 1.1825,2.83801 l 0.7095,5.79428 c 1.77376,-3.19277 3.78402,-5.79428 6.14903,-7.68628 2.24676,-1.89201 4.96652,-2.83802 8.04103,-2.83802 2.48327,0 4.49352,0.59126 6.14903,1.77376 l -1.06425,10.9973 c -0.11825,0.7095 -0.35476,1.1825 -0.70951,1.419 -0.473,0.35475 -0.946,0.473 -1.53725,0.473 -0.59126,0 -1.41901,-0.11825 -2.48326,-0.2365 -1.18251,-0.2365 -2.12851,-0.35475 -3.07452,-0.35475 -1.30075,0 -2.48326,0.2365 -3.54751,0.59125 -1.06426,0.47301 -2.01026,0.94601 -2.83801,1.77376 -0.82776,0.70951 -1.65551,1.65551 -2.24676,2.71976 -0.70951,1.06426 -1.30076,2.24676 -1.77376,3.66577 v 35.5934 z"
       id="path4058" /><path
       style="color:#000000;clip-rule:nonzero;fill:#474f54;fill-rule:nonzero;stroke:none;stroke-linecap:butt;-inkscape-stroke:none"
       d="m 273.33789,597.10937 c -3.44833,0 -6.64203,1.10248 -9.2168,3.26563 -1.37396,1.10257 -2.6071,2.42388 -3.74804,3.89648 l -0.10547,-0.86132 -0.01,-0.0527 c -0.26649,-1.4657 -0.66623,-2.78733 -1.69336,-3.81445 -1.20146,-1.20145 -2.77307,-1.36914 -4.5,-1.36914 h -10.36328 v 61.05078 h 1.84766 16.51367 v -37.05664 c 0.40845,-1.16633 0.87912,-2.1517 1.46289,-3.02735 l 0.041,-0.0625 0.0371,-0.0644 c 0.46134,-0.83041 1.16039,-1.63748 1.83398,-2.21484 l 0.0527,-0.0449 0.0508,-0.0508 c 0.55778,-0.55778 1.24105,-0.90982 2.19921,-1.33984 0.88643,-0.28812 1.8328,-0.48437 2.87891,-0.48437 0.79191,0 1.59817,0.0978 2.71094,0.32031 l 0.0801,0.0156 0.0781,0.008 c 1.03437,0.11493 1.84968,0.24804 2.6875,0.24804 0.82366,0 1.82066,-0.25794 2.60352,-0.82812 0.94515,-0.65833 1.30967,-1.65491 1.46875,-2.60938 l 0.01,-0.0625 1.17383,-12.12304 -0.86914,-0.61914 c -1.99442,-1.42458 -4.44781,-2.11914 -7.22461,-2.11915 z m 0,3.69922 c 1.75008,0 3.04267,0.39452 4.1875,1 l -0.94336,9.74219 0.0176,-0.125 c -0.0744,0.44655 -0.18859,0.36792 0.0879,0.18359 l -0.043,0.0293 -0.041,0.0312 c -0.1574,0.11805 -0.0831,0.10352 -0.42774,0.10352 -0.3447,0 -1.18321,-0.10499 -2.27734,-0.22657 l 0.1582,0.0254 c -1.25225,-0.25045 -2.33739,-0.39063 -3.4375,-0.39063 -1.5249,0 -2.91262,0.27882 -4.13281,0.68555 l -0.084,0.0293 -0.082,0.0352 c -1.09395,0.48621 -2.27936,1.07699 -3.34375,2.12305 -0.94671,0.82156 -1.86346,1.86664 -2.5664,3.11328 -0.77736,1.17871 -1.43933,2.49376 -1.95118,4.0293 l -0.0957,0.2832 v 34.04492 h -10.96484 v -53.65234 h 6.66601 c 1.3476,0 1.90372,0.3041 1.88477,0.28515 0.1544,0.15441 0.45954,0.72793 0.66601,1.84961 l 1.38868,11.34375 2.76171,-4.9707 c 1.69281,-3.04704 3.56904,-5.44586 5.6875,-7.14063 l 0.0176,-0.0137 0.0176,-0.0156 c 1.91663,-1.61401 4.15444,-2.40235 6.84961,-2.40235 z"
       id="path4060" /></g><g
     id="path92"
     transform="matrix(0.94746322,0,0,1,158.47037,40.709815)"
     style="stroke:#474f54;stroke-width:3.69846"><path
       style="color:#000000;clip-rule:nonzero;fill:#474f54;fill-rule:nonzero;stroke:none;stroke-width:3.69847;stroke-linecap:butt;-inkscape-stroke:none"
       d="m 329.55493,624.61912 c 1.30076,2.48326 2.48326,4.96652 3.42927,7.56803 0.59125,-1.30075 1.06425,-2.60151 1.65551,-3.90226 0.473,-1.30076 1.06425,-2.60151 1.77375,-3.78402 l 23.6501,-41.38767 c 0.2365,-0.59126 0.59126,-1.06426 0.94601,-1.41901 0.2365,-0.35475 0.59125,-0.59125 1.06425,-0.7095 0.35475,-0.11825 0.82776,-0.2365 1.30076,-0.2365 0.473,0 1.06425,0 1.6555,0 h 11.4703 v 76.62632 h -13.3623 v -48.0097 c 0,-1.06426 0.11825,-2.12851 0.11825,-3.31102 0.11825,-1.30075 0.11825,-2.48326 0.2365,-3.78401 l -24.1231,42.80668 c -1.18251,2.24676 -2.95627,3.42926 -5.32128,3.42926 h -2.12851 c -2.36501,0 -4.13876,-1.1825 -5.32127,-3.42926 l -24.47785,-43.04318 c 0.2365,1.30075 0.35475,2.60151 0.35475,3.90226 0.11825,1.18251 0.11825,2.36501 0.11825,3.42927 v 48.0097 h -13.36231 v -76.62632 h 11.4703 c 0.70951,0 1.18251,0 1.65551,0 0.59125,0 0.946,0.11825 1.41901,0.2365 0.35475,0.2365 0.7095,0.473 1.06425,0.7095 0.35475,0.35475 0.59125,0.82775 0.946,1.41901 z"
       id="path4064" /><path
       style="color:#000000;clip-rule:nonzero;fill:#474f54;fill-rule:nonzero;stroke:none;stroke-linecap:butt;-inkscape-stroke:none"
       d="m 287.38281,578.89844 v 80.32617 h 17.06055 v -49.36719 l 20.54687,36.13281 -0.0273,-0.0527 c 1.41293,2.68455 3.97562,4.41797 6.95703,4.41797 h 2.12891 c 2.98141,0 5.5441,-1.73341 6.95703,-4.41797 l 20.2832,-35.99023 v 49.27734 h 17.06055 v -80.3262 H 365.0293 363.375 c -0.74729,0 -1.34011,0.16688 -1.80469,0.31836 -0.75111,0.20093 -1.47914,0.67168 -1.97265,1.32617 -0.46201,0.48622 -0.9315,1.08165 -1.25196,1.88281 l 0.11133,-0.23047 -23.62891,41.35352 c -0.001,0.002 -8.9e-4,0.004 -0.002,0.006 -0.77178,1.28723 -1.39387,2.66822 -1.89648,4.04101 -6.1e-4,-10e-4 -0.001,-0.003 -0.002,-0.004 -2.4e-4,-5.4e-4 2.5e-4,-0.001 0,-0.002 -0.5848,-1.27067 -1.08486,-2.58814 -1.73437,-3.82812 l -0.0156,-0.0312 -0.0176,-0.0312 -23.77735,-41.52149 -0.01,-0.0156 c -0.31745,-0.52908 -0.57928,-1.13006 -1.22461,-1.77539 l -0.12891,-0.12891 -1.48437,-0.99023 -0.31055,-0.0762 c -0.40265,-0.10066 -1.02937,-0.29297 -1.86719,-0.29297 h -1.65625 z m 3.69727,3.69922 h 9.62109 1.65625 c 0.24896,0 0.45334,0.0665 0.70117,0.13086 l 0.52149,0.34765 c 0.079,0.0964 0.25646,0.38055 0.62109,0.98828 l 23.7207,41.42383 c 1.27687,2.43837 2.41966,4.84255 3.32422,7.33008 l 1.54688,4.25586 1.875,-4.1211 c 0.62969,-1.38531 1.10148,-2.68616 1.6543,-3.90234 l 0.0312,-0.0664 0.0234,-0.0684 c 0.43917,-1.20773 0.98817,-2.40475 1.62305,-3.4629 l 0.01,-0.0176 23.72265,-41.51563 0.0488,-0.11914 c 0.12598,-0.31494 0.32568,-0.58935 0.53516,-0.79883 l 0.13086,-0.1289 0.10156,-0.15235 c -0.0265,0.0398 -0.14858,0.0889 -0.0274,0.0586 l 0.0703,-0.0176 0.0664,-0.0234 c 0.23779,-0.0793 0.55201,-0.14062 0.7168,-0.14062 h 1.6543 9.62109 v 72.92773 h -9.66211 v -46.16016 c 0,-0.90101 0.10696,-1.96047 0.11328,-3.21679 0.12028,-1.36652 0.12541,-2.53374 0.23242,-3.71094 l -3.45312,-1.07617 -24.13477,42.83008 -0.0137,0.0234 c -0.95209,1.80896 -1.93499,2.44141 -3.68359,2.44141 h -2.12891 c -1.7486,0 -2.73346,-0.63244 -3.68555,-2.44141 l -0.0137,-0.0254 -24.49218,-43.07031 -3.42774,1.24414 c 0.21709,1.19401 0.32617,2.38359 0.32617,3.57227 v 0.0918 l 0.008,0.0918 c 0.1061,1.06106 0.10937,2.18184 0.10937,3.24609 v 46.16016 h -9.66406 z"
       id="path4066" /></g><g
     id="path96"
     transform="matrix(0.94746322,0,0,1,158.47037,40.709815)"
     style="stroke:#474f54;stroke-width:3.69846"><path
       style="color:#000000;clip-rule:nonzero;fill:#474f54;fill-rule:nonzero;stroke:none;stroke-width:3.69847;stroke-linecap:butt;-inkscape-stroke:none"
       d="m 456.08296,657.37451 h -11.58855 c -1.419,0 -2.48326,-0.35475 -3.31101,-0.946 -0.7095,-0.59126 -1.30076,-1.41901 -1.77376,-2.36501 l -4.84827,-15.13607 h -28.14362 l -4.84827,15.01782 c -0.35475,0.82775 -0.946,1.6555 -1.77376,2.36501 -0.82775,0.7095 -1.892,1.06425 -3.19276,1.06425 h -11.82505 l 27.90712,-76.62632 h 15.49081 z m -46.35419,-29.08962 h 21.40334 l -7.80454,-24.24136 c -0.473,-1.1825 -0.946,-2.60151 -1.419,-4.13876 -0.473,-1.65551 -1.06426,-3.31102 -1.53726,-5.20303 -0.473,1.89201 -0.946,3.54752 -1.419,5.20303 -0.47301,1.6555 -0.94601,3.07451 -1.41901,4.25701 z"
       id="path4070" /><path
       style="color:#000000;clip-rule:nonzero;fill:#474f54;fill-rule:nonzero;stroke:none;stroke-linecap:butt;-inkscape-stroke:none"
       d="m 411.39062,578.89844 -29.2539,80.32617 h 14.4668 c 1.63698,0 3.20533,-0.48878 4.39648,-1.50977 1.03699,-0.88884 1.79756,-1.93975 2.26953,-3.04101 l 0.0332,-0.0781 4.46094,-13.81836 h 25.44922 l 4.47852,13.98633 0.0644,0.12695 c 0.5557,1.11141 1.27072,2.14779 2.24414,2.95899 l 0.0527,0.043 0.0566,0.041 c 1.15312,0.82366 2.65757,1.29102 4.38477,1.29102 h 14.23047 l -0.9043,-2.48242 -28.34961,-77.84375 z m 2.58985,3.69922 h 12.90039 l 26.56055,72.92773 h -8.94727 c -1.08171,0 -1.68211,-0.24249 -2.17773,-0.58594 -0.41704,-0.36412 -0.84677,-0.93297 -1.21485,-1.65234 l -5.1914,-16.20899 h -30.83789 l -5.21485,16.1543 c -0.2387,0.55004 -0.65279,1.14855 -1.26562,1.67383 -0.46435,0.39801 -1.02375,0.61914 -1.98828,0.61914 h -9.1836 z m 4.59765,11.65625 c -0.4642,1.85683 -0.93129,3.48707 -1.40429,5.14257 -0.46023,1.61078 -0.916,2.97458 -1.35742,4.07813 l -0.0234,0.0586 -8.60547,26.60157 h 2.54102 23.9414 l -8.60156,-26.71875 -0.0234,-0.0586 c -0.43755,-1.09387 -0.8964,-2.46472 -1.35742,-3.96094 l -0.002,-0.008 c -0.49488,-1.73086 -1.07359,-3.35097 -1.51953,-5.13476 z m 1.85547,7.04882 c 0.38657,1.21474 0.77375,2.41776 1.17774,3.42774 l -0.0449,-0.1211 7.02734,21.82618 H 412.2715 l 7.02149,-21.70508 -0.043,0.11719 c 0.40328,-1.00819 0.79371,-2.25818 1.18359,-3.54493 z"
       id="path4072" /></g><g
     id="path100"
     transform="matrix(0.94746322,0,0,1,158.47037,40.709815)"
     style="stroke:#474f54;stroke-width:3.69846"><path
       style="color:#000000;clip-rule:nonzero;fill:#474f54;fill-rule:nonzero;stroke:none;stroke-width:3.69847;stroke-linecap:butt;-inkscape-stroke:none"
       d="m 503.61967,595.17475 c -0.35475,0.7095 -0.82775,1.30075 -1.41901,1.6555 -0.473,0.2365 -1.06425,0.47301 -1.892,0.47301 -0.70951,0 -1.53726,-0.35476 -2.36501,-0.82776 -0.82776,-0.59125 -1.89201,-1.1825 -2.95627,-1.77376 -1.1825,-0.59125 -2.48326,-1.1825 -4.02051,-1.77375 -1.41901,-0.473 -3.19277,-0.82776 -5.20303,-0.82776 -3.42926,0 -6.03077,0.82776 -7.80453,2.60151 -1.65551,1.65551 -2.60151,3.90227 -2.60151,6.62203 0,1.77376 0.473,3.19277 1.41901,4.25702 0.946,1.18251 2.24676,2.12851 3.78401,2.95626 1.53726,0.82776 3.31102,1.53726 5.32128,2.24676 1.892,0.59126 4.02051,1.30076 6.03077,2.12851 2.12851,0.7095 4.13877,1.65551 6.14903,2.60151 2.01026,1.06426 3.66576,2.36501 5.32127,3.90227 1.53726,1.53726 2.71976,3.42926 3.66576,5.67602 0.94601,2.12851 1.41901,4.84827 1.41901,8.04104 0,3.54751 -0.473,6.74028 -1.65551,9.81479 -1.1825,3.07451 -2.83801,5.67602 -4.96652,7.92278 -2.24676,2.24676 -4.96652,4.02052 -8.04103,5.32127 -3.19276,1.30076 -6.85853,2.01026 -10.87905,2.01026 -2.36501,0 -4.61177,-0.2365 -6.97678,-0.7095 -2.24676,-0.473 -4.49352,-1.1825 -6.62202,-2.12851 -2.12851,-0.82775 -4.13877,-1.89201 -5.91253,-3.07451 -1.89201,-1.30076 -3.54751,-2.71976 -4.96652,-4.25702 l 4.49352,-7.21328 c 0.35475,-0.59125 0.82775,-0.946 1.419,-1.30076 0.59126,-0.35475 1.18251,-0.59125 1.89201,-0.59125 0.94601,0 1.89201,0.35475 2.83801,1.06426 0.94601,0.7095 2.12851,1.53725 3.42927,2.36501 1.30075,0.946 2.83801,1.6555 4.61177,2.36501 1.65551,0.7095 3.78401,1.06425 6.14902,1.06425 3.42927,0 6.14903,-0.82775 8.04104,-2.60151 2.01026,-1.77376 2.95626,-4.37527 2.95626,-7.92278 0,-1.89201 -0.473,-3.54752 -1.41901,-4.73002 -0.946,-1.18251 -2.24675,-2.24676 -3.78401,-3.07452 -1.53726,-0.82775 -3.31102,-1.53725 -5.20302,-2.12851 -2.01026,-0.59125 -4.02052,-1.30075 -6.14903,-2.01025 -2.01026,-0.59126 -4.02052,-1.53726 -6.03077,-2.48326 -2.01026,-0.94601 -3.78402,-2.24676 -5.32128,-3.90227 -1.53725,-1.53726 -2.71976,-3.54752 -3.66576,-6.03078 -0.94601,-2.36501 -1.41901,-5.32127 -1.41901,-8.86878 0,-2.83802 0.59125,-5.55778 1.65551,-8.15929 1.06425,-2.71976 2.60151,-5.08477 4.73002,-7.21328 2.01026,-2.01026 4.61177,-3.66576 7.56803,-4.96652 3.07451,-1.18251 6.50378,-1.89201 10.40604,-1.89201 4.37527,0 8.51404,0.7095 12.17981,2.12851 3.78401,1.41901 6.97678,3.42927 9.69654,6.03078 z"
       id="path4076" /><path
       style="color:#000000;clip-rule:nonzero;fill:#474f54;fill-rule:nonzero;stroke:none;stroke-linecap:butt;-inkscape-stroke:none"
       d="m 485.64648,577.95312 c -4.1264,0 -7.7971,0.7567 -11.07031,2.01563 l -0.041,0.0156 -0.041,0.0176 c -3.11962,1.37264 -5.91549,3.13619 -8.13086,5.35157 -2.29116,2.29115 -3.98113,4.88738 -5.13281,7.82031 -7.8e-4,0.002 -0.001,0.004 -0.002,0.006 -1.14294,2.79572 -1.79102,5.76077 -1.79102,8.85351 0,3.70936 0.48591,6.88889 1.54883,9.54883 7.2e-4,0.002 10e-4,0.004 0.002,0.006 1.00486,2.62931 2.30156,4.86655 4.05664,6.62891 1.68532,1.80785 3.64911,3.25088 5.85938,4.29101 2.01025,0.946 4.09452,1.93623 6.29687,2.58399 2.07635,0.6929 4.07586,1.39987 6.11914,2.00195 6.2e-4,1.9e-4 0.001,-1.9e-4 0.002,0 1.80335,0.56366 3.47266,1.23709 4.875,1.99219 1.33809,0.72051 2.44924,1.64211 3.21679,2.60156 0.60789,0.75986 1.01367,1.99041 1.01367,3.57422 0,3.21875 -0.77663,5.16447 -2.33007,6.53515 l -0.0195,0.0195 -0.0215,0.0195 c -1.45634,1.36531 -3.6437,2.10156 -6.77539,2.10156 -2.18009,0 -4.08872,-0.34467 -5.42188,-0.91602 l -0.0195,-0.008 -0.0215,-0.01 c -1.72114,-0.68846 -3.11499,-1.34553 -4.21094,-2.14258 l -0.0469,-0.0332 -0.0488,-0.0312 c -1.25794,-0.8005 -2.40594,-1.60523 -3.3125,-2.28515 -1.18271,-0.88704 -2.53895,-1.4336 -3.94727,-1.4336 -1.12044,0 -2.09703,0.40745 -2.84375,0.85547 -0.68451,0.41072 -1.49277,1.00033 -2.05273,1.9336 l -5.22266,8.38476 0.95703,1.03516 c 1.52053,1.64724 3.28294,3.15619 5.27735,4.52734 l 0.01,0.006 0.0117,0.008 c 1.87304,1.24869 3.98455,2.36331 6.23047,3.24024 2.24376,0.99351 4.5954,1.73884 6.94922,2.23437 l 0.01,0.002 0.008,0.002 c 2.46962,0.49392 4.85155,0.74414 7.33984,0.74414 4.23807,0 8.14298,-0.74777 11.57617,-2.14648 l 0.0117,-0.004 0.0117,-0.006 c 3.26968,-1.38332 6.19863,-3.28652 8.62891,-5.7168 l 0.0176,-0.0176 0.0156,-0.0176 c 2.28942,-2.41661 4.08694,-5.24322 5.35156,-8.53125 1.27718,-3.32066 1.77735,-6.76664 1.77735,-10.47852 0,-3.37219 -0.48782,-6.33086 -1.57618,-8.7832 -1.01415,-2.40116 -2.31696,-4.50837 -4.04882,-6.24024 l -0.0254,-0.0254 -0.0254,-0.0234 c -1.72481,-1.60161 -3.523,-3.02229 -5.71289,-4.18164 l -0.0391,-0.0195 -0.0391,-0.0195 c -1.99724,-0.93987 -4.06267,-1.91106 -6.31055,-2.66406 -2.06684,-0.84678 -4.21255,-1.5647 -6.10547,-2.15625 l 0.0645,0.0195 c -1.96734,-0.69435 -3.65773,-1.37549 -5.06055,-2.13086 -1.40281,-0.75536 -2.48682,-1.56994 -3.2168,-2.48242 l -0.0293,-0.0371 -0.0332,-0.0371 c -0.60708,-0.68296 -0.95117,-1.58233 -0.95117,-3.02734 0,-2.29095 0.74751,-4.00141 2.06055,-5.31445 1.33789,-1.33789 3.36442,-2.06055 6.49609,-2.06055 1.78211,0 3.35159,0.31757 4.5918,0.72851 1.43943,0.55595 2.65821,1.10735 3.77344,1.66407 1.04809,0.58251 2.05777,1.1512 2.74023,1.63867 l 0.0762,0.0547 0.0801,0.0469 c 0.94301,0.53887 1.95727,1.07031 3.2832,1.07031 1.18,0 2.13551,-0.37634 2.71875,-0.66797 l 0.0645,-0.0312 0.0605,-0.0371 c 0.99547,-0.59727 1.65608,-1.48403 2.1211,-2.41407 l 4.54687,-8.40234 -1.01953,-0.97461 c -2.8938,-2.76799 -6.31513,-4.91773 -10.30859,-6.41797 l -0.004,-0.002 c -3.90823,-1.51223 -8.26814,-2.25196 -12.8418,-2.25196 z m 0,3.69922 c 4.17535,0 8.08942,0.67719 11.51172,2.00196 l 0.008,0.004 0.01,0.004 c 3.09823,1.16184 5.67268,2.80359 7.97852,4.78711 l -3.17578,5.87109 -0.0137,0.0274 c -0.23206,0.46412 -0.49108,0.72732 -0.67773,0.85156 -0.31545,0.15397 -0.54152,0.2539 -0.97852,0.2539 -0.0931,0 -0.73478,-0.17684 -1.44726,-0.58398 l 0.15625,0.10156 c -0.96332,-0.68807 -2.06856,-1.29351 -3.13281,-1.88476 l -0.0352,-0.0195 -0.0352,-0.0195 c -1.22661,-0.6133 -2.58703,-1.23164 -4.18359,-1.8457 l -0.0391,-0.0137 -0.041,-0.0137 c -1.59443,-0.53148 -3.55929,-0.92188 -5.78711,-0.92188 -3.72684,0 -6.9017,0.93297 -9.11133,3.14258 -1.99797,1.99798 -3.14453,4.78113 -3.14453,7.92969 0,2.09161 0.59988,4.01588 1.8711,5.45898 1.15647,1.42623 2.65306,2.49348 4.30468,3.38282 1.6717,0.90015 3.53081,1.63667 5.58399,2.36132 l 0.0312,0.0117 0.0312,0.01 c 1.86688,0.58341 3.94959,1.2798 5.8789,2.07422 l 0.0586,0.0234 0.0605,0.0195 c 1.97237,0.65745 3.89957,1.56016 5.88868,2.49609 1.81098,0.9617 3.31035,2.13394 4.88086,3.58984 1.32473,1.33205 2.37514,2.99009 3.24609,5.0586 l 0.008,0.0156 0.008,0.0176 c 0.80148,1.80331 1.25977,4.27893 1.25977,7.28906 0,3.38313 -0.44537,6.32203 -1.5332,9.15039 -1.09659,2.85115 -2.60672,5.22114 -4.56446,7.29297 -2.05732,2.05296 -4.55889,3.69168 -7.42578,4.90625 -2.94983,1.19999 -6.37168,1.8711 -10.16992,1.8711 -2.2391,0 -4.34806,-0.22282 -6.60547,-0.67383 -2.12176,-0.4474 -4.24464,-1.11806 -6.24219,-2.00586 l -0.041,-0.0176 -0.0391,-0.0156 c -1.98909,-0.77353 -3.87994,-1.77463 -5.53907,-2.8789 -1.38649,-0.95359 -2.50782,-2.01578 -3.60937,-3.08789 l 3.66992,-5.89063 0.008,-0.0117 c 0.14954,-0.24923 0.28717,-0.36916 0.78516,-0.66796 0.43581,-0.26148 0.64089,-0.32618 0.93945,-0.32618 0.48371,0 1.01922,0.16139 1.72852,0.69336 0.95906,0.71929 2.15024,1.549 3.45117,2.38086 0.003,0.002 0.007,0.002 0.01,0.004 1.4964,1.0866 3.1673,1.84617 4.98046,2.57226 1.97411,0.84216 4.3172,1.20704 6.85938,1.20704 3.71534,0 6.95508,-0.91629 9.28125,-3.08399 2.45311,-2.17676 3.56445,-5.42329 3.56445,-9.28906 0,-2.20021 -0.54009,-4.27963 -1.82422,-5.88477 -1.12444,-1.40557 -2.61514,-2.61382 -4.35156,-3.54883 -1.67169,-0.90013 -3.54741,-1.64493 -5.52734,-2.26367 l -0.0156,-0.006 -0.0137,-0.004 c -1.94622,-0.57242 -3.93989,-1.27424 -6.08789,-1.99024 l -0.0312,-0.0117 -0.0312,-0.008 c -1.81817,-0.53476 -3.75538,-1.43681 -5.76562,-2.38281 -1.79855,-0.84638 -3.36869,-1.99861 -4.75196,-3.48828 l -0.0234,-0.0234 -0.0254,-0.0254 c -1.30255,-1.30256 -2.36245,-3.06642 -3.24414,-5.38086 l -0.006,-0.0156 -0.006,-0.0137 c -0.82759,-2.06897 -1.2871,-4.79851 -1.2871,-8.18164 0,-2.58118 0.53345,-5.05337 1.51757,-7.45898 l 0.006,-0.0137 0.006,-0.0137 c 0.97661,-2.49578 2.35545,-4.61912 4.31446,-6.57812 1.79563,-1.79563 4.19071,-3.3348 6.96484,-4.56055 2.86614,-1.09754 6.04081,-1.75586 9.70312,-1.75586 z"
       id="path4078" /></g><path
     d="m 285.34167,717.42775 c -0.19159,0.33531 -0.479,0.47901 -0.86222,0.47901 -0.2395,0 -0.479,-0.0479 -0.76642,-0.2395 -0.2874,-0.19161 -0.57481,-0.33531 -0.95802,-0.57482 -0.38321,-0.1916 -0.86222,-0.3353 -1.38913,-0.52691 -0.52692,-0.1916 -1.14963,-0.2395 -1.86815,-0.2395 -0.57481,0 -1.14963,0.0479 -1.62864,0.2395 -0.47901,0.19161 -0.86222,0.38321 -1.24543,0.71852 -0.33531,0.28741 -0.57481,0.62271 -0.76642,1.00592 -0.1916,0.43111 -0.2874,0.86222 -0.2874,1.29333 0,0.57482 0.1437,1.10173 0.47901,1.48494 0.28741,0.38321 0.71852,0.71852 1.24543,1.00592 0.47901,0.28741 1.10173,0.52692 1.72444,0.76642 0.67062,0.19161 1.34123,0.43111 2.05975,0.67062 0.67062,0.2395 1.34123,0.52691 2.01185,0.81432 0.67061,0.33531 1.24543,0.71852 1.77234,1.14963 0.52691,0.43111 0.91012,1.00592 1.24543,1.62863 0.28741,0.67062 0.43111,1.43704 0.43111,2.39506 0,1.05383 -0.1437,2.01185 -0.52691,2.92197 -0.33531,0.91012 -0.86222,1.67654 -1.58074,2.29926 -0.67062,0.67061 -1.53284,1.19753 -2.53876,1.58074 -1.05383,0.3353 -2.20345,0.52691 -3.54469,0.52691 -1.53282,0 -2.87406,-0.23951 -4.11949,-0.76642 -1.24542,-0.52691 -2.29925,-1.19753 -3.16148,-2.01185 l 0.95803,-1.53284 c 0.14371,-0.1916 0.2874,-0.3353 0.4311,-0.47901 0.19161,-0.0958 0.43111,-0.1437 0.67063,-0.1437 0.2874,0 0.57481,0.0958 0.86222,0.28741 0.28741,0.2395 0.62271,0.47901 1.00592,0.71851 0.38321,0.23951 0.86222,0.47902 1.43704,0.71852 0.57481,0.19161 1.24543,0.28741 2.10765,0.28741 0.71852,0 1.34123,-0.0958 1.86814,-0.28741 0.52692,-0.1916 0.95803,-0.47901 1.29333,-0.81432 0.33531,-0.33531 0.57482,-0.71852 0.76642,-1.19753 0.19161,-0.43111 0.23951,-0.91012 0.23951,-1.38913 0,-0.62272 -0.1437,-1.14963 -0.47901,-1.58074 -0.28741,-0.38321 -0.71852,-0.76642 -1.24543,-1.05382 -0.52692,-0.28741 -1.10173,-0.52692 -1.77235,-0.76642 -0.62271,-0.19161 -1.34123,-0.43111 -2.01184,-0.67062 -0.71852,-0.2395 -1.38914,-0.52691 -2.05975,-0.81432 -0.62272,-0.33531 -1.24543,-0.71852 -1.72444,-1.19753 -0.52692,-0.43111 -0.95803,-1.05382 -1.29334,-1.72444 -0.2874,-0.67061 -0.47901,-1.53283 -0.47901,-2.49086 0,-0.91012 0.19161,-1.72444 0.52692,-2.53876 0.3353,-0.81432 0.86222,-1.53284 1.48493,-2.10765 0.67062,-0.62271 1.48494,-1.10173 2.44296,-1.48494 0.95802,-0.3353 2.05975,-0.52691 3.30518,-0.52691 1.43703,0 2.73036,0.23951 3.87999,0.71852 1.14963,0.47901 2.15555,1.10173 2.96987,1.96395 z"
     style="fill:#174365;fill-opacity:1;fill-rule:nonzero;stroke:none;stroke-width:47.9011"
     id="path106" /><path
     d="m 291.62312,736.49241 v -22.89675 h 2.44296 c 0.2874,0 0.5269,0.0958 0.71852,0.23951 0.1916,0.0958 0.28741,0.3353 0.33531,0.62271 l 0.33529,2.34716 c 0.43112,-0.52692 0.86224,-1.00593 1.34124,-1.43704 0.47901,-0.43111 1.00592,-0.76642 1.53283,-1.10172 0.57482,-0.33531 1.14963,-0.57482 1.77235,-0.71852 0.62271,-0.19161 1.29333,-0.28741 2.01184,-0.28741 1.53284,0 2.82617,0.43111 3.8321,1.29333 1.00592,0.86222 1.67654,2.01185 2.10765,3.44889 0.33531,-0.81432 0.76642,-1.53284 1.29333,-2.15556 0.52691,-0.57481 1.14963,-1.05382 1.77234,-1.43703 0.67063,-0.43111 1.38913,-0.71852 2.10766,-0.86222 0.76642,-0.19161 1.53283,-0.28741 2.29926,-0.28741 2.49086,0 4.4548,0.76642 5.79604,2.25136 1.38913,1.48493 2.05975,3.64048 2.05975,6.41875 v 14.56195 h -4.1195 v -14.56195 c 0,-1.77234 -0.43111,-3.11357 -1.19753,-4.0237 -0.81432,-0.91012 -2.01185,-1.38913 -3.49679,-1.38913 -0.71851,0 -1.34123,0.0958 -1.96394,0.33531 -0.57482,0.2395 -1.14963,0.57481 -1.58074,1.05382 -0.47901,0.43111 -0.81432,1.00593 -1.10173,1.67654 -0.2874,0.67062 -0.43111,1.43704 -0.43111,2.34716 v 14.56195 h -4.1195 v -14.56195 c 0,-1.82024 -0.38321,-3.20938 -1.10172,-4.0716 -0.76642,-0.91012 -1.86815,-1.34123 -3.35308,-1.34123 -1.00593,0 -1.91605,0.23951 -2.77827,0.76642 -0.91012,0.52691 -1.67654,1.24543 -2.39506,2.20345 v 17.00491 z"
     style="fill:#174365;fill-opacity:1;fill-rule:nonzero;stroke:none;stroke-width:47.9011"
     id="path110" /><path
     d="m 344.59222,736.49241 c -0.38321,0 -0.71853,-0.0479 -0.91014,-0.1916 -0.2395,-0.14371 -0.38321,-0.38321 -0.4311,-0.76642 l -0.52691,-2.10765 c -0.62271,0.52691 -1.19753,1.00592 -1.77234,1.43703 -0.52691,0.43111 -1.14964,0.81432 -1.77235,1.10173 -0.62272,0.2874 -1.29334,0.52691 -2.01185,0.67061 -0.71852,0.14371 -1.48494,0.19161 -2.34716,0.19161 -0.91012,0 -1.72444,-0.0958 -2.49086,-0.33531 -0.76642,-0.23951 -1.43703,-0.62271 -2.05975,-1.14963 -0.57481,-0.47901 -1.00592,-1.10172 -1.34123,-1.86814 -0.33531,-0.76642 -0.52691,-1.67654 -0.52691,-2.68247 0,-0.91012 0.2395,-1.77234 0.71851,-2.63456 0.52692,-0.81432 1.29334,-1.58074 2.39506,-2.20345 1.14963,-0.67062 2.58666,-1.19753 4.35902,-1.62864 1.77234,-0.38321 3.92788,-0.62272 6.51454,-0.71852 v -1.72444 c 0,-1.77234 -0.3353,-3.11358 -1.10172,-4.0237 -0.76642,-0.91012 -1.86815,-1.34123 -3.30518,-1.34123 -0.95803,0 -1.77235,0.1437 -2.44296,0.38321 -0.67062,0.23951 -1.24543,0.52691 -1.72444,0.81432 -0.479,0.28741 -0.91012,0.57481 -1.24542,0.81432 -0.38321,0.2395 -0.71853,0.38321 -1.10174,0.38321 -0.23949,0 -0.479,-0.0958 -0.71852,-0.23951 -0.1916,-0.1437 -0.3353,-0.2874 -0.47901,-0.52691 l -0.76642,-1.29333 c 1.29333,-1.24543 2.63457,-2.15555 4.1195,-2.73037 1.43704,-0.62271 3.06568,-0.91012 4.83802,-0.91012 1.29333,0 2.39506,0.19161 3.40098,0.62272 1.00592,0.43111 1.86815,1.00592 2.53876,1.77234 0.67062,0.76642 1.14963,1.67654 1.48494,2.73036 0.38321,1.05383 0.52691,2.25136 0.52691,3.54469 v 14.60985 z m -8.52641,-2.53876 c 0.67062,0 1.29332,-0.0479 1.86815,-0.19161 0.57481,-0.1437 1.14962,-0.3353 1.62864,-0.62271 0.5269,-0.23951 1.00592,-0.57481 1.48492,-0.95802 0.47901,-0.38321 0.91013,-0.76642 1.34123,-1.24543 v -4.74222 c -1.82024,0.0958 -3.35308,0.23951 -4.64641,0.47901 -1.24543,0.19161 -2.29925,0.52692 -3.11357,0.86222 -0.81432,0.38321 -1.38914,0.81432 -1.72444,1.34124 -0.3832,0.52691 -0.52691,1.05382 -0.52691,1.67654 0,0.62271 0.0958,1.10172 0.2874,1.53283 0.1916,0.43111 0.43111,0.81432 0.76643,1.05383 0.33531,0.28741 0.71852,0.47901 1.14963,0.62271 0.479,0.14371 0.95802,0.19161 1.48493,0.19161 z"
     style="fill:#174365;fill-opacity:1;fill-rule:nonzero;stroke:none;stroke-width:47.9011"
     id="path114" /><rect
     x="352.83121"
     y="703.24902"
     width="4.1194992"
     height="33.243397"
     style="fill:#174365;fill-opacity:1;fill-rule:nonzero;stroke:none;stroke-width:47.9011"
     id="rect118" /><rect
     x="363.82611"
     y="703.24902"
     width="4.1194992"
     height="33.243397"
     style="fill:#174365;fill-opacity:1;fill-rule:nonzero;stroke:none;stroke-width:47.9011"
     id="rect122" /><path
     d="m 386.69732,703.77592 c 1.24543,0 2.34715,0.19161 3.35309,0.57482 1.00592,0.38321 1.91604,0.86222 2.63456,1.53284 0.71852,0.62271 1.29333,1.38913 1.72444,2.20345 0.43111,0.81432 0.67062,1.72444 0.71852,2.58666 l -2.53876,0.52691 c -0.23951,0.0479 -0.47901,0 -0.67062,-0.0958 -0.2395,-0.0958 -0.38321,-0.28741 -0.47901,-0.57481 -0.0958,-0.43111 -0.28741,-0.81432 -0.52691,-1.24543 -0.23951,-0.43111 -0.52691,-0.81432 -0.91012,-1.14963 -0.38321,-0.33531 -0.86222,-0.62272 -1.38914,-0.86222 -0.57481,-0.19161 -1.19752,-0.33531 -1.91604,-0.33531 -0.76642,0 -1.48494,0.1437 -2.10765,0.38321 -0.62272,0.23951 -1.14963,0.57481 -1.58074,1.00592 -0.43111,0.43111 -0.76642,0.91013 -1.00592,1.48494 -0.23951,0.57481 -0.38321,1.19753 -0.38321,1.86814 0,1.05383 0.2874,2.01185 0.81432,2.96988 0.52691,0.95802 1.34123,2.01184 2.53876,3.11357 l 9.53233,9.48443 c 0.6227,-1.00593 1.10172,-2.10765 1.43703,-3.20938 0.38321,-1.10173 0.6227,-2.20345 0.71852,-3.35308 0.0479,-0.62271 0.38321,-0.91012 0.95801,-0.91012 h 2.49086 c 0,1.72444 -0.28741,3.44888 -0.81432,5.12542 -0.57481,1.67654 -1.34123,3.25728 -2.34715,4.69431 l 6.94567,6.89777 h -3.9758 c -0.4311,0 -0.81432,-0.0479 -1.10172,-0.1437 -0.23951,-0.14371 -0.52691,-0.33531 -0.86222,-0.67062 l -3.40098,-3.30518 c -1.43704,1.38913 -3.11358,2.44296 -5.02962,3.25728 -1.91605,0.81432 -3.9758,1.19753 -6.27505,1.19753 -1.24543,0 -2.44296,-0.19161 -3.64049,-0.57482 -1.19753,-0.43111 -2.25136,-1.00592 -3.20938,-1.77234 -0.91012,-0.76642 -1.67654,-1.72444 -2.25135,-2.82617 -0.57482,-1.14962 -0.81432,-2.39505 -0.81432,-3.78419 0,-1.05382 0.1437,-2.05975 0.52691,-2.96987 0.38321,-0.95802 0.86222,-1.82024 1.48494,-2.63456 0.67061,-0.76642 1.43703,-1.48494 2.29925,-2.15555 0.91012,-0.62272 1.86814,-1.14963 2.92196,-1.58074 -0.95802,-1.19753 -1.67653,-2.34716 -2.10765,-3.40098 -0.4311,-1.10173 -0.67062,-2.25136 -0.67062,-3.40098 0,-1.10173 0.23951,-2.10766 0.62272,-3.11358 0.43111,-0.95802 1.00592,-1.77234 1.77234,-2.53876 0.76642,-0.71852 1.72444,-1.29333 2.82617,-1.67654 1.10173,-0.43111 2.34716,-0.62272 3.68839,-0.62272 z m -2.73036,29.74662 c 1.72443,0 3.25728,-0.28741 4.64641,-0.91012 1.38914,-0.62272 2.58667,-1.43704 3.64048,-2.49086 l -9.81973,-9.58023 c -1.62864,0.86222 -2.87407,1.86814 -3.68839,3.06567 -0.81432,1.19753 -1.24543,2.49086 -1.24543,3.92789 0,0.95803 0.1916,1.82025 0.57482,2.53877 0.3353,0.76641 0.86222,1.38913 1.43703,1.91604 0.62272,0.47901 1.34123,0.86222 2.10766,1.14963 0.76641,0.23951 1.53282,0.38321 2.34715,0.38321 z"
     style="fill:#174365;fill-opacity:1;fill-rule:nonzero;stroke:none;stroke-width:47.9011"
     id="path126" /><path
     d="m 419.9471,717.42775 c -0.1916,0.33531 -0.47901,0.47901 -0.86221,0.47901 -0.23951,0 -0.47902,-0.0479 -0.76642,-0.2395 -0.2874,-0.19161 -0.57481,-0.33531 -0.95802,-0.57482 -0.38321,-0.1916 -0.86222,-0.3353 -1.38913,-0.52691 -0.52692,-0.1916 -1.14963,-0.2395 -1.86815,-0.2395 -0.57482,0 -1.14963,0.0479 -1.62864,0.2395 -0.47901,0.19161 -0.86222,0.38321 -1.24543,0.71852 -0.33531,0.28741 -0.57481,0.62271 -0.76642,1.00592 -0.1916,0.43111 -0.2874,0.86222 -0.2874,1.29333 0,0.57482 0.1437,1.10173 0.47901,1.48494 0.28741,0.38321 0.71852,0.71852 1.24543,1.00592 0.47901,0.28741 1.10173,0.52692 1.72444,0.76642 0.67062,0.19161 1.34123,0.43111 2.05975,0.67062 0.67062,0.2395 1.34123,0.52691 2.01185,0.81432 0.67061,0.33531 1.24543,0.71852 1.77234,1.14963 0.52691,0.43111 0.91012,1.00592 1.24543,1.62863 0.28741,0.67062 0.43111,1.43704 0.43111,2.39506 0,1.05383 -0.14371,2.01185 -0.52691,2.92197 -0.33531,0.91012 -0.86222,1.67654 -1.58074,2.29926 -0.67062,0.67061 -1.53284,1.19753 -2.53876,1.58074 -1.05383,0.3353 -2.20345,0.52691 -3.54469,0.52691 -1.53283,0 -2.87407,-0.23951 -4.1195,-0.76642 -1.24543,-0.52691 -2.29925,-1.19753 -3.16147,-2.01185 l 0.95801,-1.53284 c 0.14371,-0.1916 0.28742,-0.3353 0.43111,-0.47901 0.19162,-0.0958 0.43111,-0.1437 0.67062,-0.1437 0.28741,0 0.57481,0.0958 0.86222,0.28741 0.28741,0.2395 0.62271,0.47901 1.00592,0.71851 0.38321,0.23951 0.86222,0.47902 1.43704,0.71852 0.57481,0.19161 1.24543,0.28741 2.10765,0.28741 0.71852,0 1.34123,-0.0958 1.86814,-0.28741 0.52692,-0.1916 0.95803,-0.47901 1.29333,-0.81432 0.33531,-0.33531 0.57482,-0.71852 0.76642,-1.19753 0.19161,-0.43111 0.23951,-0.91012 0.23951,-1.38913 0,-0.62272 -0.1437,-1.14963 -0.47901,-1.58074 -0.28741,-0.38321 -0.71852,-0.76642 -1.24543,-1.05382 -0.52692,-0.28741 -1.10173,-0.52692 -1.77235,-0.76642 -0.62271,-0.19161 -1.34123,-0.43111 -2.01184,-0.67062 -0.71852,-0.2395 -1.38914,-0.52691 -2.05975,-0.81432 -0.62272,-0.33531 -1.24543,-0.71852 -1.72444,-1.19753 -0.52692,-0.43111 -0.95803,-1.05382 -1.29334,-1.72444 -0.2874,-0.67061 -0.47901,-1.53283 -0.47901,-2.49086 0,-0.91012 0.19161,-1.72444 0.52692,-2.53876 0.3353,-0.81432 0.86222,-1.53284 1.48493,-2.10765 0.67062,-0.62271 1.48494,-1.10173 2.44296,-1.48494 0.95802,-0.3353 2.05975,-0.52691 3.30518,-0.52691 1.43703,0 2.73036,0.23951 3.87999,0.71852 1.14963,0.47901 2.15555,1.10173 2.96987,1.96395 z"
     style="fill:#174365;fill-opacity:1;fill-rule:nonzero;stroke:none;stroke-width:47.9011"
     id="path130" /><path
     d="m 435.28186,713.26035 c 1.38913,0 2.63456,0.23951 3.83209,0.67062 1.14963,0.47901 2.15555,1.14963 3.01777,2.01185 0.86223,0.86222 1.53284,1.91604 2.01185,3.20937 0.47901,1.24543 0.71852,2.68247 0.71852,4.35901 0,0.62271 -0.0479,1.05382 -0.1916,1.24543 -0.14371,0.2395 -0.38321,0.33531 -0.76642,0.33531 H 428.6236 c 0,1.43703 0.1916,2.68246 0.57481,3.73629 0.33531,1.05382 0.86222,1.96394 1.48494,2.68246 0.62271,0.67062 1.38913,1.19753 2.25135,1.53284 0.86222,0.38321 1.82025,0.52691 2.92197,0.52691 1.00593,0 1.86815,-0.0958 2.58667,-0.33531 0.71851,-0.1916 1.38914,-0.47901 1.86814,-0.71852 0.52691,-0.2874 1.00593,-0.57481 1.34123,-0.76641 0.38321,-0.23951 0.67062,-0.33531 0.95803,-0.33531 0.1437,0 0.2874,0 0.43111,0.0958 0.0958,0.0479 0.2395,0.1437 0.3353,0.28741 l 1.14963,1.48493 c -0.52691,0.62272 -1.10172,1.14963 -1.82024,1.58074 -0.67062,0.43111 -1.43704,0.81432 -2.20345,1.10173 -0.81432,0.2874 -1.62864,0.52691 -2.49086,0.62271 -0.86223,0.14371 -1.67653,0.23951 -2.49086,0.23951 -1.62864,0 -3.06567,-0.28741 -4.4069,-0.81432 -1.34123,-0.52691 -2.49086,-1.29333 -3.49678,-2.34716 -0.95803,-1.00592 -1.72445,-2.29925 -2.25136,-3.83209 -0.57481,-1.53284 -0.81432,-3.25728 -0.81432,-5.26913 0,-1.58073 0.23951,-3.06567 0.71852,-4.4548 0.47901,-1.34124 1.19753,-2.53876 2.10765,-3.59259 0.95801,-1.00592 2.05975,-1.82024 3.40098,-2.39506 1.34123,-0.57481 2.82617,-0.86222 4.5027,-0.86222 z m 0.0958,3.01777 c -1.91604,0 -3.44888,0.52692 -4.55061,1.67654 -1.14962,1.10173 -1.82024,2.63457 -2.10765,4.59852 h 12.4543 c 0,-0.91013 -0.0958,-1.77235 -0.38321,-2.53877 -0.2874,-0.76641 -0.67061,-1.43703 -1.14963,-1.96394 -0.47901,-0.57482 -1.10172,-1.00593 -1.82024,-1.34123 -0.71852,-0.28741 -1.53284,-0.43112 -2.44296,-0.43112 z"
     style="fill:#174365;fill-opacity:1;fill-rule:nonzero;stroke:none;stroke-width:47.9011"
     id="path134" /><path
     d="m 464.575,717.71516 c -0.0958,0.1916 -0.2395,0.33531 -0.3353,0.38321 -0.14371,0.0958 -0.2874,0.1437 -0.52691,0.1437 -0.1916,0 -0.47902,-0.0958 -0.71852,-0.28741 -0.23951,-0.1916 -0.52691,-0.3832 -0.91013,-0.62271 -0.38321,-0.1916 -0.86221,-0.43111 -1.38913,-0.62271 -0.52691,-0.19161 -1.19752,-0.23951 -1.96395,-0.23951 -1.05382,0 -1.96395,0.1916 -2.73036,0.57481 -0.76642,0.38321 -1.43704,0.95803 -1.96395,1.72444 -0.52691,0.71852 -0.91012,1.62864 -1.19753,2.68247 -0.28741,1.05382 -0.38321,2.25135 -0.38321,3.59259 0,1.34123 0.1437,2.58666 0.43111,3.64048 0.28741,1.05383 0.67062,1.96395 1.19753,2.73037 0.52691,0.71852 1.19753,1.24543 1.91605,1.62864 0.76641,0.38321 1.58073,0.57481 2.53876,0.57481 0.91012,0 1.62864,-0.0958 2.20345,-0.33531 0.57481,-0.2395 1.10173,-0.47901 1.48493,-0.76642 0.38321,-0.2874 0.71852,-0.52691 0.95803,-0.76641 0.2395,-0.23951 0.52691,-0.33531 0.81432,-0.33531 0.2874,0 0.57481,0.0958 0.71851,0.38321 l 1.19753,1.48493 c -0.47901,0.62272 -1.05382,1.14963 -1.62864,1.58074 -0.62271,0.43111 -1.29333,0.81432 -1.96394,1.10173 -0.71852,0.2874 -1.43704,0.52691 -2.20346,0.62271 -0.76641,0.14371 -1.53283,0.23951 -2.29925,0.23951 -1.34123,0 -2.58666,-0.28741 -3.78419,-0.81432 -1.14963,-0.52691 -2.15555,-1.29333 -3.01777,-2.29926 -0.91013,-1.00592 -1.58074,-2.25135 -2.05975,-3.68839 -0.47902,-1.43703 -0.71852,-3.11357 -0.71852,-4.98171 0,-1.72445 0.1916,-3.30518 0.67062,-4.74222 0.43111,-1.43703 1.10172,-2.68246 1.96394,-3.73629 0.86222,-1.00592 1.91605,-1.82024 3.20938,-2.44296 1.29333,-0.57481 2.73036,-0.86222 4.40691,-0.86222 1.53283,0 2.92197,0.28741 4.07159,0.76642 1.14963,0.52691 2.20346,1.29333 3.11358,2.20345 z"
     style="fill:#174365;fill-opacity:1;fill-rule:nonzero;stroke:none;stroke-width:47.9011"
     id="path138" /><path
     d="m 473.90934,713.59566 v 14.60985 c 0,1.67654 0.38322,3.01777 1.14963,3.9758 0.76642,0.95802 1.96394,1.38913 3.54469,1.38913 1.14963,0 2.25135,-0.23951 3.25728,-0.81432 1.00592,-0.52691 1.91604,-1.29333 2.77827,-2.25135 v -16.90911 h 4.1195 v 22.89675 h -2.49086 c -0.28741,0 -0.47902,-0.0479 -0.67062,-0.1916 -0.1916,-0.14371 -0.33531,-0.33531 -0.33531,-0.67062 l -0.38321,-2.39506 c -1.00592,1.05383 -2.05975,1.96395 -3.30518,2.63457 -1.19753,0.62271 -2.58666,0.95802 -4.1674,0.95802 -1.24543,0 -2.34715,-0.19161 -3.30518,-0.62272 -0.95802,-0.38321 -1.72444,-0.95802 -2.34715,-1.72444 -0.67062,-0.76642 -1.14963,-1.67654 -1.48494,-2.73036 -0.33531,-1.10173 -0.47901,-2.25136 -0.47901,-3.54469 v -14.60985 z"
     style="fill:#174365;fill-opacity:1;fill-rule:nonzero;stroke:none;stroke-width:47.9011"
     id="path142" /><path
     d="m 495.10081,736.49241 v -22.89675 h 2.34716 c 0.43111,0 0.76642,0.0958 0.95802,0.28741 0.14371,0.1437 0.28741,0.43111 0.28741,0.86222 l 0.28741,3.35308 c 0.71851,-1.48494 1.58073,-2.68247 2.58666,-3.54469 1.05382,-0.91012 2.29925,-1.34123 3.73629,-1.34123 0.47901,0 0.91012,0.0479 1.34123,0.1437 0.43111,0.0958 0.81432,0.28741 1.14963,0.52692 l -0.33531,3.01777 c -0.0479,0.38321 -0.23951,0.62271 -0.62271,0.62271 -0.23951,0 -0.52692,-0.0479 -0.95803,-0.1437 -0.38321,-0.0958 -0.81432,-0.1437 -1.29333,-0.1437 -0.71852,0 -1.34123,0.0958 -1.86814,0.33531 -0.52692,0.1916 -1.00593,0.52691 -1.43704,0.91012 -0.43111,0.43111 -0.81432,0.91012 -1.14963,1.53283 -0.3353,0.57482 -0.62271,1.24543 -0.91012,2.01185 v 14.46615 z"
     style="fill:#174365;fill-opacity:1;fill-rule:nonzero;stroke:none;stroke-width:47.9011"
     id="path146" /><path
     d="m 520.60338,713.26035 c 1.38913,0 2.63456,0.23951 3.83209,0.67062 1.14963,0.47901 2.15555,1.14963 3.01777,2.01185 0.86223,0.86222 1.53284,1.91604 2.01185,3.20937 0.47901,1.24543 0.71852,2.68247 0.71852,4.35901 0,0.62271 -0.0479,1.05382 -0.1916,1.24543 -0.14371,0.2395 -0.38321,0.33531 -0.76642,0.33531 h -15.28047 c 0,1.43703 0.1916,2.68246 0.57481,3.73629 0.33531,1.05382 0.86222,1.96394 1.48494,2.68246 0.62271,0.67062 1.38914,1.19753 2.25135,1.53284 0.86222,0.38321 1.82025,0.52691 2.92197,0.52691 1.00593,0 1.86815,-0.0958 2.58668,-0.33531 0.7185,-0.1916 1.38913,-0.47901 1.86813,-0.71852 0.52691,-0.2874 1.00593,-0.57481 1.34123,-0.76641 0.38322,-0.23951 0.67062,-0.33531 0.95803,-0.33531 0.14371,0 0.2874,0 0.43111,0.0958 0.0958,0.0479 0.23951,0.1437 0.3353,0.28741 l 1.14964,1.48493 c -0.52691,0.62272 -1.10172,1.14963 -1.82025,1.58074 -0.67061,0.43111 -1.43704,0.81432 -2.20344,1.10173 -0.81432,0.2874 -1.62865,0.52691 -2.49086,0.62271 -0.86223,0.14371 -1.67654,0.23951 -2.49086,0.23951 -1.62865,0 -3.06568,-0.28741 -4.40691,-0.81432 -1.34123,-0.52691 -2.49086,-1.29333 -3.49678,-2.34716 -0.95803,-1.00592 -1.72445,-2.29925 -2.25136,-3.83209 -0.57481,-1.53284 -0.81432,-3.25728 -0.81432,-5.26913 0,-1.58073 0.23951,-3.06567 0.71852,-4.4548 0.47901,-1.34124 1.19753,-2.53876 2.10765,-3.59259 0.95802,-1.00592 2.05975,-1.82024 3.40098,-2.39506 1.34123,-0.57481 2.82617,-0.86222 4.5027,-0.86222 z m 0.0958,3.01777 c -1.91604,0 -3.44888,0.52692 -4.55061,1.67654 -1.14962,1.10173 -1.82024,2.63457 -2.10765,4.59852 h 12.4543 c 0,-0.91013 -0.0958,-1.77235 -0.38321,-2.53877 -0.2874,-0.76641 -0.67061,-1.43703 -1.14963,-1.96394 -0.47901,-0.57482 -1.10172,-1.00593 -1.82024,-1.34123 -0.71852,-0.28741 -1.53284,-0.43112 -2.44296,-0.43112 z"
     style="fill:#174365;fill-opacity:1;fill-rule:nonzero;stroke:none;stroke-width:47.9011"
     id="path150" /></g>
</svg>
